PathFileType	4	(X/Y/Z)	C:\Users\86182\Documents\cortex\Trimmed_M3_H1.trc
DataRate	CameraRate	NumFrames	NumMarkers	Units	OrigDataRate	OrigDataStartFrame	OrigNumFrames
100.00	100.00	       85	2	mm	100.00	181	       901
Frame#	Time	gripper			box			
		X1	Y1	Z1	X2	Y2	Z2	

181	1.800	268.28610	172.51653	215.82574	269.12265	168.77049	79.62345	
182	1.810	268.27298	172.52081	216.25905	269.11841	168.78423	80.04333	
183	1.820	268.25589	172.53287	216.68620	269.10223	168.80943	80.46133	
184	1.830	268.23355	172.54849	217.10876	269.07614	168.84355	80.87881	
185	1.840	268.20523	172.56342	217.52864	269.04199	168.88103	81.29510	
186	1.850	268.17047	172.57559	217.94653	269.00177	168.91568	81.70736	
187	1.860	268.13080	172.58505	218.36186	268.95825	168.94331	82.11426	
188	1.870	268.09109	172.59233	218.77524	268.91537	168.96234	82.51883	
189	1.880	268.05722	172.59763	219.18942	268.87805	168.97282	82.92607	
190	1.890	268.03232	172.60023	219.60703	268.85101	168.97537	83.33907	
191	1.900	268.01611	172.59892	220.02841	268.83670	168.97102	83.75838	
192	1.910	268.00714	172.59370	220.45306	268.83386	168.96193	84.18364	
193	1.920	268.00458	172.58670	220.88153	268.83893	168.95183	84.61476	
194	1.930	268.00827	172.58046	221.31540	268.84891	168.94485	85.05186	
195	1.940	268.01871	172.57561	221.75537	268.86267	168.94383	85.49493	
196	1.950	268.03680	172.57083	222.19986	268.87918	168.94949	85.94398	
197	1.960	268.06161	172.56583	222.64569	268.89633	168.96156	86.39787	
198	1.970	268.08862	172.56300	223.09055	268.91132	168.97960	86.85278	
199	1.980	268.11212	172.56516	223.53372	268.92236	169.00206	87.30322	
200	1.990	268.12869	172.57204	223.97415	268.92966	169.02521	87.74525	
201	2.000	268.13806	172.58041	224.40961	268.93454	169.04504	88.17807	
202	2.010	268.14136	172.58757	224.83823	268.93668	169.06032	88.60266	
203	2.020	268.14001	172.59378	225.26007	268.93408	169.07259	89.01974	
204	2.030	268.13626	172.60071	225.67651	268.92609	169.08328	89.42969	
205	2.040	268.13361	172.60817	226.08920	268.91623	169.09221	89.83424	
206	2.050	268.13531	172.61420	226.50066	268.90964	169.09940	90.23761	
207	2.060	268.14169	172.61794	226.91476	268.90802	169.10663	90.64538	
208	2.070	268.14984	172.62132	227.33505	268.90793	169.11601	91.06174	
209	2.080	268.15701	172.62714	227.76289	268.90396	169.12750	91.48713	
210	2.090	268.16281	172.63626	228.19759	268.89105	169.13824	91.91957	
211	2.100	268.16757	172.64807	228.63748	268.86182	169.14478	92.35913	
212	2.110	268.17053	172.66312	229.08099	268.80362	169.14543	92.80943	
213	2.120	268.17090	172.68304	229.52704	268.70093	169.13933	93.27434	
214	2.130	268.16870	172.70798	229.97446	268.54120	169.12329	93.75423	
215	2.140	268.16440	172.73578	230.42107	268.31995	169.09251	94.24545	
216	2.150	268.15860	172.76349	230.86430	268.04782	169.04602	94.74213	
217	2.160	268.15259	172.78853	231.30223	267.76257	168.99284	95.23593	
218	2.170	268.14767	172.80875	231.73328	267.52536	168.95050	95.71545	
219	2.180	268.14368	172.82314	232.15616	267.37723	168.93115	96.17270	
220	2.190	268.13922	172.83243	232.57124	267.30902	168.93256	96.60838	
221	2.200	268.13351	172.83830	232.98108	267.30316	168.95030	97.02460	
222	2.210	268.12778	172.84218	233.38884	267.37448	168.98883	97.41840	
223	2.220	268.12436	172.84479	233.79724	267.53583	169.04999	97.78996	
224	2.230	268.12540	172.84668	234.20897	267.75693	169.12173	98.15018	
225	2.240	268.13162	172.84859	234.62619	267.98572	169.18806	98.51387	
226	2.250	268.14224	172.85144	235.04970	268.18433	169.24207	98.89093	
227	2.260	268.15677	172.85597	235.47943	268.33527	169.28549	99.28516	
228	2.270	268.17514	172.86209	235.91570	268.43777	169.32233	99.69641	
229	2.280	268.19611	172.86940	236.35892	268.50327	169.35458	100.12267	
230	2.290	268.21729	172.87773	236.80817	268.54648	169.38307	100.56212	
231	2.300	268.23724	172.88724	237.26147	268.57770	169.40991	101.01323	
232	2.310	268.25562	172.89848	237.71744	268.60147	169.43785	101.47273	
233	2.320	268.27142	172.91277	238.17494	268.61957	169.46686	101.93501	
234	2.330	268.28271	172.93077	238.63187	268.63327	169.49326	102.39468	
235	2.340	268.28839	172.95166	239.08525	268.64236	169.51315	102.84933	
236	2.350	268.28873	172.97430	239.53227	268.64401	169.52663	103.29898	
237	2.360	268.28384	172.99864	239.97124	268.63422	169.53789	103.74268	
238	2.370	268.27380	173.02409	240.40187	268.61172	169.55072	104.17718	
239	2.380	268.26019	173.04794	240.82458	268.57990	169.56511	104.59993	
240	2.390	268.24622	173.06682	241.24016	268.54453	169.57864	105.01329	
241	2.400	268.23462	173.07964	241.65091	268.50989	169.59000	105.42436	
242	2.410	268.22604	173.08754	242.06079	268.47806	169.59953	105.83942	
243	2.420	268.22037	173.09180	242.47321	268.45016	169.60773	106.25909	
244	2.430	268.21796	173.09258	242.88893	268.42770	169.61420	106.68002	
245	2.440	268.21982	173.08905	243.30751	268.41205	169.61781	107.10020	
246	2.450	268.22662	173.08067	243.72971	268.40424	169.61732	107.52132	
247	2.460	268.23856	173.06882	244.15695	268.40567	169.61218	107.94691	
248	2.470	268.25552	173.05656	244.58917	268.41806	169.60284	108.37910	
249	2.480	268.27725	173.04594	245.02441	268.44061	169.59038	108.81638	
250	2.490	268.30258	173.03656	245.46005	268.46841	169.57617	109.25488	
251	2.500	268.32922	173.02724	245.89436	268.49521	169.56187	109.69142	
252	2.510	268.35410	173.01851	246.32707	268.51794	169.54897	110.12538	
253	2.520	268.37411	173.01205	246.75815	268.53680	169.53828	110.55750	
254	2.530	268.38663	173.00882	247.18604	268.55148	169.53024	110.98680	
255	2.540	268.39011	173.00804	247.60867	268.55954	169.52542	111.40981	
256	2.550	268.38467	173.00795	248.02594	268.55844	169.52444	111.82347	
257	2.560	268.37115	173.00711	248.43962	268.54800	169.52666	112.22861	
258	2.570	268.35037	173.00566	248.85088	268.53064	169.53015	112.63000	
259	2.580	268.32257	173.00482	249.26009	268.50992	169.53311	113.03300	
260	2.590	268.28760	173.00507	249.66833	268.48822	169.53525	113.43996	
261	2.600	268.24609	173.00497	250.07747	268.46588	169.53745	113.84946	
262	2.610	268.20068	173.00250	250.48962	268.44293	169.54062	114.25835	
263	2.620	268.15582	172.99715	250.90744	268.42160	169.54501	114.66505	
264	2.630	268.11551	172.99104	251.33328	268.40594	169.55022	115.07256	
265	2.640	268.08139	172.98737	251.76669	268.39886	169.55562	115.48700	
